<svg xmlns="http://www.w3.org/2000/svg" id="Camada_2" data-name="Camada 2" viewBox="0 0 740.12 166.07"><defs><style>      .cls-1 {        fill: #fff;      }    </style></defs><g id="Camada_1-2" data-name="Camada 1"><g><path class="cls-1" d="M581.91,124.83l-7.49-1.82-.07-4.57c2.89.72,5.47,2.5,8.49,2.84,5.68.63,12.58-1.27,11.25-8.34-1.45-7.68-21.88-7.67-19.71-20.92.73-4.49,8.25-7.97,12.47-7.93,1.29.01,9.73,1.3,10.1,1.87l.07,3.99c-4-1.59-14.61-4.46-17.02.72-3.9,8.37,12.14,11.81,16.45,15.84,7.88,7.38.91,17.11-8.15,18.32-1.97.26-4.36-.19-6.4,0Z"></path><path class="cls-1" d="M55.33,67.98l-.68-.2-8.91-14.36-.52,2.66,8.36,13.72c-5.41,8.19-11.42,16.12-16.26,24.69-13.43,23.8-2.21,28.04,20.83,26.45,6.23-.43,12.45-1.52,18.69-1.95,2.89,7.14,3.69,15.7,7.02,22.6,7.04,14.56,16.8,1.27,22.8-5.93,4.79-5.74,9.18-11.83,13.58-17.87,1.1-.97,5.76-.33,7.46-.15,11.23,1.19,29.74,5.55,18.37,20.34-12.64,16.45-36.67,26.88-57.12,27.97C37.85,168.68-4.4,126.05.37,74.77c.2-2.17.84-7.84,1.62-9.64.24-.54.36-.56.78-.87,2.23-1.61,8.35-3.86,11.18-5.04,12.09-5.04,25.08-9.03,38.01-11.32,5.07-.9,10.19-1.43,15.29-2.09-2.7,8.03-7.49,15.04-11.92,22.17Z"></path><path class="cls-1" d="M160.64,116.3c-11.11-3.2-22.48-6.15-34.11-6.62l15.4-20.85,5.2,15.98.59.56c-.05-.48.53-.87.59-1.24.22-1.3-1.27-8-1.68-9.75-.71-3.03-1.81-5.99-2.55-9.01,5.1-9.57,16.11-23.09,10.65-34.5-5.26-10.99-28.15-12.81-38.81-13.84-7.16-8.11-14.47-17.64-22.68-24.67-4.36-3.74-9.86-7.16-13.68-.75-4.29,7.18-5.69,17.59-8.65,25.44l-.76.89c-21.7,2.27-43.16,6.87-63.7,14.12-.45.13-.61-.03-.47-.47.6-1.95,2.46-5.54,3.46-7.46C45.25-24.3,148.8-10.02,165.45,65.33c3.86,17.47,1.97,34.52-4.81,50.97Z"></path><path class="cls-1" d="M118.19,108.62c-13.76-.59-27.63-.41-41.29,1.36l-16.58-33.23c6.25-10.14,11.79-20.67,16.86-31.44.57-.35,9.62-.21,11.12-.17,7.49.21,16.03.92,23.44,2.04,2.13.32,6.78.73,8.16,2.11,2.59,2.59,6.63,8.84,8.75,12.11,3.45,5.32,6.72,11.07,9.06,16.96-5.19,10.88-12.26,20.71-19.53,30.27Z"></path><path class="cls-1" d="M73.22,110.68c-5.81.12-11.89,1.11-17.68.29-17.83-2.52.1-23.33,3.11-31.73.25-.19,2.89,4.8,3.15,5.29,4.41,8.3,8.53,17.22,11.42,26.15Z"></path><path class="cls-1" d="M111.63,116.97c-4.25,4.87-8.47,10.73-13.4,14.9-6.67,5.64-9.81,3.04-13.15-3.76-1.23-2.51-3.13-6.73-3.9-9.34-.18-.62.1-.44.48-.48,4-.49,8.86-.76,12.93-.99,5.67-.31,11.38-.35,17.05-.33Z"></path><path class="cls-1" d="M109.98,36.87l-28.81.16c3.48-7.69,7.09-20.83,17.71-12.4,4.14,3.29,7.91,8.03,11.1,12.23Z"></path><polygon class="cls-1" points="734.89 115.53 734.89 85.3 740.12 85.3 740.12 124.25 734.02 123.67 712.78 94.02 712.78 124.25 707.55 124.25 707.55 85.3 713.65 85.89 734.89 115.53"></polygon><polygon class="cls-1" points="529.56 85.3 535.25 85.43 556.9 115.53 556.9 85.3 562.13 85.3 562.13 124.25 555.98 123.71 534.79 94.02 534.79 124.25 529.56 124.25 529.56 85.3"></polygon><path class="cls-1" d="M309.4,85.3c11.68,1.65,10.47,15.21.29,18.31,6.27,3.27,12.12,6.05,9,14.24-1.13,2.96-2.81,4.28-5.77,5.28-.71.24-4.25,1.13-4.69,1.13h-15.41v-38.95c5.16.52,11.59-.7,16.58,0ZM298.64,102.16c6.47.92,15.33-.89,13.1-9.32-.38-1.45-2.73-4.05-4.08-4.05h-9.6c-.15.43.58.7.58.87v12.5ZM298.64,106.52c.48,3.53,0,8.99,0,12.79,0,.22-1.02.67.3,1.46,5.1-1.22,14.03,1.16,14.29-6.68.27-7.99-9.1-8.94-15.17-8.43-.29.21.56.7.58.87Z"></path><path class="cls-1" d="M386.76,85.3c11.81,1.96,10.23,18.12-.87,20.64l13.95,18.31-6.27-.13-12.59-16.77-6.73-.54v17.44h-5.82v-38.95c5.55.65,13.03-.88,18.32,0ZM374.25,103.9c6.57,1.27,15.59-2.31,14.52-10.13-.25-1.8-2.59-4.99-4.34-4.99h-10.18v15.12Z"></path><path class="cls-1" d="M246.28,124.25l-6.4-.28-5.62-11.37-18.28.38-4.67,11.19-5.74.08,16.38-38.85,6.6.48,17.73,38.37ZM217.79,108.55h13.67c.22,0,.54,1.15,1.44-.29l-7.84-18.9-7.27,19.19Z"></path><path class="cls-1" d="M139.78,74.27l-13.9-24.16c.46-.35,8.26,2.18,9.39,2.69,8.85,4,6.86,13.89,4.51,21.47Z"></path><path class="cls-1" d="M499.31,85.3v3.49h-19.19v13.37h16.29v3.49h-16.29v14.24l.85.72,19.14-.35.7.46c.62.76.25,3.53-.62,3.53h-25.01l-.87-.87v-38.08h25.01Z"></path><polygon class="cls-1" points="676.72 85.3 676.72 88.79 657.53 88.79 657.53 102.16 673.81 102.16 673.81 105.65 657.53 105.65 657.53 119.89 658.39 120.57 677.88 120.18 677.88 124.25 651.71 124.25 651.71 85.3 676.72 85.3"></polygon><path class="cls-1" d="M356.22,85.3v3.49h-18.61v13.37h16.29l-.58,3.49h-15.7v15.12c2.58-1.32,5.46-.27,8.11-.2,2.81.07,8.75-.76,10.79-.39s1.38,2.4,1.46,4.08h-26.17v-38.95h24.43Z"></path><path class="cls-1" d="M256.76,85.3h5.24s0,34.88,0,34.88h20.94c-.04,1.41.44,3.13-.87,4.07h-25.3v-38.95Z"></path><polygon class="cls-1" points="643.57 85.3 643.57 88.21 627.28 88.21 627.28 124.25 622.04 124.25 622.04 88.21 605.76 88.21 605.76 85.3 643.57 85.3"></polygon><polygon class="cls-1" points="442.31 85.3 442.31 88.21 426.02 88.21 426.02 124.25 420.79 124.25 420.79 88.21 404.5 88.21 404.5 85.3 442.31 85.3"></polygon><rect class="cls-1" x="687.19" y="85.3" width="5.23" height="38.95"></rect><path class="cls-1" d="M515.02,85.3v38.08c-1.24,1.52-3.48.71-5.23.87v-38.95h5.23Z"></path><path class="cls-1" d="M549.04,43.44c.54.12,2.92,2.05,3.23,2.58,2.9,5.03-3.34,7.26-3.41,8.16l6.87,9.01c-6.71,1.41-6.49-10.13-13.38-8.71v8.72h-2.91v-19.77c2.8.41,7.03-.56,9.6,0ZM542.35,52.75c9.69,1.34,10.66-9.48,0-7.56v7.56Z"></path><path class="cls-1" d="M590.63,63.2l-3.39-.09-2.81-5.62c-6.2-.16-10.06-1.79-11.33,5.64l-2.83.08c.73-2.49,7.24-18.9,8.11-19.5s2.53-.47,3.24.31l9.01,19.18ZM583.65,55.65c.42-.39-2.2-6.49-2.65-7.52-.31-.71-.56-2.33-1.41-2.35,0,1.66-3.79,8.99-2.92,9.88h6.98Z"></path><path class="cls-1" d="M414.97,63.2l-3.4-.09-2.79-5.64c-6.01-.14-10.29-1.74-11.33,5.67l-3.43.06c1.83-2.42,7.39-18.68,8.71-19.48.92-.56,2.47-.51,3.22.3l9.01,19.18ZM407.99,55.65c.3-.26-2.22-6.54-2.65-7.52-.31-.71-.56-2.33-1.42-2.35l-3.49,9.88h7.56Z"></path><path class="cls-1" d="M739.54,63.21c-3.97.91-3.75-2.75-5.17-5.45l-9.85-.26c-1.46,2.74-1.11,6.6-5.33,5.71l8.71-19.48c1.14-.55,2.75-.59,3.45.64l8.19,18.84ZM733.14,55.65l-3.78-9.88-3.78,9.88h7.56Z"></path><path class="cls-1" d="M316.09,54.49v8.72h-2.91v-19.77h9.6c.47,0,3,1.71,3.35,2.46,2.97,6.35-4.77,9.68-10.04,8.58ZM322.93,45.91l-6.84-.72v7.56c4.73.8,9.31-1.66,6.84-6.84Z"></path><path class="cls-1" d="M248.82,61.84c-7.55-6.97-.83-23.17,9.26-18.27,11.76,5.72,1.75,28.43-9.26,18.27ZM258.89,46.55c-7.02-7.08-15.61,6.1-9.11,13.47,6.99,7.93,16.37-6.16,9.11-13.47Z"></path><polygon class="cls-1" points="620.3 43.44 620.3 45.19 610.41 45.19 610.41 52.16 618.55 52.16 618.55 53.91 610.41 53.91 610.41 61.47 620.88 61.47 620.88 63.21 607.5 63.21 607.5 43.44 620.3 43.44"></polygon><path class="cls-1" d="M293.98,45.77c-2.86-.54-5.9-2.33-8.43,0-2.28,7.08,9.36,5.44,9.64,11.94.24,5.6-6.12,5.91-10.23,5.51-2.3-.22-3.01-.42-2.61-2.91,2.52,1.58,9.62,2.66,9.94-1.45.39-5.1-7.16-4.72-9.28-8.8-3.23-6.21,5.91-8.37,10.4-6.33l.57,2.04Z"></path><path class="cls-1" d="M520.25,45.77c-.29.32-5.87-2.91-8.18.25-3.21,4.38,6.87,6.31,8.78,8.9,2.52,3.41.18,7.64-3.83,8.25-2.53.39-9.01,1.02-7.81-2.87,2.45,2.11,9.95,2.41,9.94-2.03,0-4.18-9.19-4.37-9.92-9.34-.87-5.91,6.21-6.86,10.44-5.19.7.25.76,1.83.58,2.03Z"></path><path class="cls-1" d="M383.56,43.44v1.74h-8.72c.27.69.54,1.24.6,2.02.23,3.09.49,11.84-.02,14.55-.32,1.72-1.35,1.52-2.91,1.45v-18.02h-8.14v-1.74h19.19Z"></path><polygon class="cls-1" points="641.82 43.44 641.82 60.59 642.77 61.34 652.29 61.47 652.29 63.21 638.91 63.21 638.91 43.44 641.82 43.44"></polygon><polygon class="cls-1" points="706.97 43.44 706.97 45.19 698.82 45.19 698.82 63.21 696.5 63.21 696.5 45.19 687.77 45.19 687.77 43.44 706.97 43.44"></polygon><path class="cls-1" d="M431.84,43.44l2.87.94c-1.62,5.49.68,11.03-.27,16.5l10.2.58v1.74h-12.8v-19.77Z"></path><rect class="cls-1" x="344.59" y="43.44" width="2.91" height="19.77"></rect><rect class="cls-1" x="668.58" y="43.44" width="2.33" height="19.77"></rect><rect class="cls-1" x="487.68" y="43.44" width="2.33" height="19.77"></rect><polygon class="cls-1" points="213.13 43.44 213.13 52.16 223.02 52.16 223.02 53.33 213.13 53.33 213.13 63.21 211.39 63.21 211.39 43.44 213.13 43.44"></polygon><path class="cls-1" d="M223.6,43.44h2.32c-1.78,5.84.69,12.13.03,17.76-.2,1.71-.48,2.23-2.36,2v-19.77Z"></path></g></g></svg>