<svg xmlns="http://www.w3.org/2000/svg" id="Camada_2" data-name="Camada 2" viewBox="0 0 748.77 119.84"><defs><style>      .cls-1 {        fill: #fff;      }    </style></defs><g id="Camada_1-2" data-name="Camada 1"><g><path class="cls-1" d="M24.91,94.89C-13.82,70.98-4.24,41.16,32.01,22.08c55.65-29.3,164.53-30.25,219.05,2.03,35.97,21.29,34.47,52.99-2.83,70.8l-40.03-.1c-2.19-7.85-14.33-17-8.93-26.28,2.08-3.57,22.37-8.78,26.82-11.34-9.04-8.37-20.59-3.64-30.7-.38-1.1-11.56,6.7-31.05-4.25-39.44-5.69-4.36-15.13-5.26-22.03-4.28-1.09,4.5-1.53,9.06-2.92,13.51-4.5,14.34-16.52,25.67-5.27,41.4-10.81,4.59-22.61,1.7-33.72,4.11,8.99,4.52,4.66,13.97,10.19,20.48,8.93-4.11,17.47-9.21,27.65-9.73l.98.24c.91,1.9,1.94,3.62,3.52,5.07,3.13,2.88,7.63,4.06,10.86,6.72H24.91Z"></path><polygon class="cls-1" points="724.05 33.09 748.77 33.09 732.26 92.78 706.82 92.43 667.11 55.85 662.98 53.24 652.11 92.81 627.38 92.81 643.97 33.18 669.9 33.65 712.43 72.64 724.05 33.09"></polygon><path class="cls-1" d="M295.42,92.81c16.27-17.24,33.63-33.44,50.23-50.37,3.1-3.16,5.96-8.93,10.8-9.4,10.01-.98,21.67.79,31.86.08l16.52,59.69h-23.23l-3.45-13.48-39.48.2-13.64,13.29h-29.6ZM374.85,69.67c-.69-7.09-3.63-13.95-5.25-20.9-5.58,6.01-14.23,12.31-19.1,18.66-.58.75-1.45.94-1.12,2.24h25.48Z"></path><path class="cls-1" d="M551.7,33.09l-10.35,39c3.86,13.71,33.19,12.05,41.43,5.03,3.69-3.14,4.37-6.27,5.84-10.61,3.7-10.92,5.59-22.85,9.92-33.42h24.35c-8.56,22.08-6.44,48.92-33.32,57.51-15.8,5.05-47.44,5.91-62.08-2.41-5.94-3.38-10.85-8.6-10.96-15.8l10.44-39.31h24.73Z"></path><path class="cls-1" d="M504.49,36.08l-3.03,10.42c-13.57-2.76-27.65-4.82-41.59-3.73-3.59.28-8.07.83-9.95,4.25-.45,2.13,2.82,3.58,4.37,4.35,10.38,5.14,43.63,9.14,46.27,21.84,3.15,15.17-15.81,20.23-27.19,21.1-20.76,1.58-41.84-1.43-60.22-11.28l3.28-11.09c9.73,6.38,21.42,9.86,32.98,11.17,8.15.92,19.63,2.02,25.77-4.24.73-2.82-5.78-5.96-7.89-6.86-9.81-4.18-40.34-9.51-43.38-20.98-4.39-16.51,23.7-19.72,34.45-20.22,15.62-.73,31.03,1.73,46.12,5.27Z"></path><path class="cls-1" d="M194.63,101.61c.2.12.86,3,2.31,4.05,2.62,1.9,6.42,1.01,8.9-.72,1.82-1.27,2.08-3.33,2.28-3.33h27.73c-.18,1.14-2.54,1.64-3.56,2.06-49.28,20.05-123.15,20.92-173.86,5.61l-19.66-7.66h155.86Z"></path></g></g></svg>