<svg xmlns="http://www.w3.org/2000/svg" id="Camada_2" data-name="Camada 2" viewBox="0 0 463.77 104.42"><defs><style>      .cls-1 {        fill: #fff;      }    </style></defs><g id="Camada_1-2" data-name="Camada 1"><g><path class="cls-1" d="M45.6.38c64.37-7.24,79.37,91.48,14.58,103.04C-9.35,115.83-24.36,8.25,45.6.38ZM43.24,3.54c-15.19,1.81-30.06,13.83-36.57,27.4-20.62,42.96,26.62,87.93,68.28,64.33C121.47,68.9,98.91-3.11,43.24,3.54Z"></path><path class="cls-1" d="M457.78,71.92V31.02l4.37-.94,1.62,1.44v50.38c-2.6.61-4.97,2.04-7.06-.43-9.75-12.13-17.88-25.39-26.63-38.18-.61-.9.17-1.83-2.23-1.3v39.91l-4.53.76-1.46-1.26v-47.89c0-.39-1.38-1.48-1-2.48,2.6-.64,4.97-2.04,7.07.42l29.85,40.48Z"></path><path class="cls-1" d="M187.24,29.29c38.62-2.25,38.1,60.67-5.07,53.37-26.62-4.5-26.73-51.52,5.07-53.37ZM184.15,34.24c-20.62,4.24-19.1,46.83,7.62,44.58,24.32-2.05,21.57-50.59-7.62-44.58Z"></path><path class="cls-1" d="M385.76,29.27c37.83-2.98,39.01,60.76-4.85,53.18-26.93-4.66-26.85-50.68,4.85-53.18ZM382.69,34.24c-20.11,4.2-19.09,46.83,7.62,44.58,24.77-2.08,21.78-50.72-7.62-44.58Z"></path><path class="cls-1" d="M125.57,31.02c8.02-.89,20.57-3.17,25.94,4.49,3.99,5.69,2.55,12.9-2.98,16.96,23.59,17.62-1.95,38.49-22.96,27.93V31.02ZM132.55,35.51v14.96c3.66,2.87,10.52,2.34,13.19-1.77,7.51-11.56-11.61-18.27-13.19-13.19ZM132.55,77.91c10.31,3.67,21.82-4.32,17.2-15.71-2.09-5.14-13.03-8.58-17.2-4.75v20.45Z"></path><path class="cls-1" d="M276.21,32.52c13.27-7.2,35.78-.53,29.01,18.03-1.47,4.02-5.31,5.44-7.08,8.89.01,2.11,11.58,17,13.6,20.37.59.99,2.19,1.62.41,2.61-9.49,5.26-16.47-18.56-21.39-21.52-2.38-1.43-5.71-1.73-7.55.56v20.45l-5.41.89-1.57-1.39v-48.88ZM283.2,55.96c5.79.11,12.56,1.29,15.21-5.24,4.22-10.43-5.48-20.64-15.21-15.21v20.45Z"></path><path class="cls-1" d="M321.11,31.02c15.88-4.95,37.47,4.47,21.97,21.45,4.32,3.71,8.42,5.67,9.02,11.9,1.84,18.98-16.65,20.04-30.99,17.53V31.02ZM327.09,35.51v16.46c6.88.71,14.86.34,14.83-8.48-.03-9.15-13.67-11.72-14.83-7.98ZM327.09,77.91c10.47,3.74,21.85-4.24,17.2-15.71-2.09-5.14-13.03-8.58-17.2-4.75v20.45Z"></path><path class="cls-1" d="M229.32,30.02v30.43c0,1.23,2.52,9.13,3.27,10.7,6.51,13.57,24.58,7.87,26.58-6.8,1.08-7.95-1.73-25.78.25-31.67.65-1.95,3.9-2.83,5.82-2.66v35.42c0,.89-3.66,9.1-4.56,10.41-2.78,4.06-7.02,6.52-11.9,7.05-33.13,3.63-24.23-29.74-25.48-51.22l6.03-1.66Z"></path><path class="cls-1" d="M45.62,5.92C108.68-.49,115.09,93.65,55.64,98.87-6.25,104.31-13.48,11.93,45.62,5.92ZM86.57,42.3c-1.06-1.08-4.86-2.87-5.11-3.91,2.47-6.71-1.08-16.2-8.61-17.52-2.47-.43-5.51.29-7.57-.33-1.49-.45-2.99-4.08-5.51-5.55-6.53-3.8-13.08-1.77-18.44,2.81-.99.85-2.04,3.48-3.43,4.09-.87.38-2.29-1.03-3.6-1.17-7.94-.87-14.69,4.3-15.17,12.4-.13,2.1,1.52,5.01,1.26,6.05-.13.55-3.63,2.89-4.63,4-6.12,6.76-6.02,16,.86,22.09.91.81,2.97,1.11,3.52,2.01.82,1.35.22,4.99.72,7.18,1.78,7.85,10.84,10.08,17.75,7.89,4.5,13.41,20.83,11.09,26.12-.5,12.32,5.03,21.4-5.57,17.4-17.68,9.15-2.81,10.94-15.28,4.44-21.87Z"></path><path class="cls-1" d="M36.3,42.02c-.8-4.76-7.36-3.93-11.06-3.94-1.3-7.15,3.44-14.45,11.1-13.06.98.57-.92,5.71-.77,7.81,1.25,17.82,29.53,20.55,25.96,42.72-1.25,7.81-13.06,10.77-16.94,2.03-3.02-6.81-.72-12.83,1.33-19.24.36-1.13,1.02-.9-.55-2.09-3.21.11-5.29,2.7-8.05,3.79-21.66,8.56-24.51-22.41-1.02-18.01Z"></path><path class="cls-1" d="M65.53,79.14v-11.45c0-11.88-22.06-23.4-24.13-33.52-3.63-17.66,17.23-19.12,17.84-3.56.11,2.75-3.17,13.18-2.8,13.78,1.21,1.96,7.48-1.83,9.67-2.18,9.59-1.53,15.94,3.59,14.37,13.58-.51,3.24-2.79,5.78-5.91,6.72-1.3,1.65-9.13-.56-9.02,1.23.15,2.45,9.15,2.94,11.06,2.31,2.82,7.25-3.61,13.83-11.08,13.09Z"></path><path class="cls-1" d="M42.62,60.19c-1.19,2.79-3.11,5.36-3.9,8.33-1.02,3.81.41,10.8-3.51,10.6-5.15-.26-9.99-5.72-9.08-10.95,6.41-.84,10.86-5.45,16.49-7.98Z"></path><path class="cls-1" d="M76.59,37.29c-2.15-.09-4.23-.08-6.36.35-3.62.74-6.18,2.11-9.43,3.59.71-2.84,2.95-4.56,3.99-7.45.63-1.76,1.16-8.95,1.96-9.12,6.85.55,10.72,5.94,9.84,12.63Z"></path></g></g></svg>