<svg xmlns="http://www.w3.org/2000/svg" id="Camada_2" data-name="Camada 2" viewBox="0 0 1599.46 263.61"><defs><style>      .cls-1 {        fill: #fff;      }    </style></defs><g id="Camada_1-2" data-name="Camada 1"><g><path class="cls-1" d="M1475.05,8.96l6.32,2.27,114.9,114.98,3.19,6.43-122.06,121.87c-2.16.39-3-.09-2.34-2.34,1.45-4.91,7.11-12.72,9.39-18.77,6.69-17.75,11.81-42.86,4.45-60.82-11.54-28.13-52.2-32.45-70.17-8.03-17.76,24.14-6.06,63.71,28.15,57.08-6.08,46.54-69.67,55.98-97.61,20.19-37.54-48.08-36.1-173.99,1.56-221.8,21.83-27.71,67.97-26.19,88.87,1.57,3.89,5.17,10.76,16.06,4.9,21.35-16.93-6.7-31.92,8.52-33.69,24.64-6.4,58.09,76,63.93,81.31,10.94,2.46-24.56-7.36-47.83-17.18-69.57Z"></path><path class="cls-1" d="M100.35,52.74c-2.36-12.85,19.28-17.48,23.87-7.44,1.82,3.98,2.06,48.62.34,52.76-3.97,9.54-24.7,11.52-30.1.46-4.8-9.82,2.78-18.83-8.26-26.15-13.06-8.65-32.58-3.81-40.35,9.53-8.06,13.83-7.97,53.16-.55,67.34,9.59,18.32,45.42,20.69,48.66-2.02,1.06-7.4-2.15-14.44,4.74-20.29,10.47-8.89,27.11-1.32,29.44,11.41,9.8,53.61-67.85,67.62-102.03,41.04C-3.4,156.43-5.71,104.68,8.31,72.51c12.24-28.1,49.42-43.27,77.47-29.44,5.52,2.72,8.93,7.99,14.57,9.66Z"></path><path class="cls-1" d="M1299.87,5.83c2.33,2.56-9.78,18.22-11.75,21.86-34.9,64.34-34.72,143.38.54,207.52,3.75,6.82,10.76,12.89,11.2,20.84l-129.87-124.41c-.42-4.36,16.92-20.08,21.15-24.2,31.85-30.97,69.72-70.93,103.26-98.49,1.76-1.45,2.52-3.8,5.47-3.12Z"></path><path class="cls-1" d="M256.26,186.76c-8.6,9.73-37.38,7.13-42.52-7.31-25.4,22.63-81.25,17.25-73.59-26.7,5.99-34.4,52.31-21.27,63.44-36.63,11.27-15.56-15.09-27.17-19.57-18.01-1.36,2.79-.71,7.22-1.82,10.69-5.27,16.52-39.07,13.13-34.84-12.96,3.73-23.01,56.32-22.22,72.7-16.58,19.53,6.71,20.04,21.68,21.1,39.89.84,14.45-.95,29.17.15,43.64l2.34,2.35c13.28-2.66,21.42,11.64,12.59,21.63ZM206.7,141.89c-7.33,2.72-30.37,4.17-32.57,12.07s4.16,12.53,11.49,13.04c14.99,1.05,21.61-11.8,21.08-25.12Z"></path><path class="cls-1" d="M919.85,158.31c.27,1.63,2.25,4.65,3.08,6.39,2.45,1.76,7.23-1.81,11.41-.66,8.26,2.28,7.92,19.37,1.06,23.88-7.9,5.2-13.88-.35-21.18-.51-5.16-.12-18.18,6.37-20.7-1.21-1.16-3.49,1.33-8.7-2.61-11.47-15.59,24.12-67.44,26.06-71.16-8.6-1.55-14.42,3.24-49.88-1.57-60.6-2.78-6.19-16.94,5.34-18.82-8.14-3.48-24.94,18.04-16.33,32.13-16.36,6.54-.01,14.37-4.61,19.55.64v67.25c0,1.39,3.33,9.54,4.63,11.01,9.74,10.97,26.29,1.91,30.54-10.24,2.45-6.99,5.19-44.74-1.75-46.78-11.19,2.85-16.5,2.82-16.35-10.29.23-19.48,18.92-11.57,30.63-11.58,6.89,0,15.45-4.78,21.11.64v76.63Z"></path><path class="cls-1" d="M539.04,138.76c-1.26.26-4.8,2.77-5.28,4.19-.84,15.95,12.47,26.56,28.04,23.27,9.98-2.11,29.74-29.8,40.39-10.85,9.87,17.56-16.72,34.53-32.05,36.4-50.43,6.16-81.68-27.68-67.77-77.15,14.86-52.88,97.28-50.95,103.14-.09.45,3.88,1.26,24.24-3.91,24.24h-62.56ZM571.1,116.86c4.64-18.01-20.48-22.85-31.33-11.78-2.32,2.36-7.82,11.78-2.3,11.78h33.62Z"></path><path class="cls-1" d="M734.93,76.6c42.13-5.71,69.87,18.89,67.68,61.44-2.12,41.19-28.43,58.32-67.92,53.72-57.58-6.71-59.29-107.08.24-115.16ZM745.93,101.54c-33.74,2.51-25.16,80.45,10.13,63.44,18.1-8.72,18.88-65.59-10.13-63.44Z"></path><path class="cls-1" d="M679.01,58.99c-8.79-.91-14.36.96-15.59,10.31-2.44,18.48,24.39.81,23.51,21.72-.74,17.44-19.53,4.55-22.86,14.81-1.94,5.96-1.42,39.85-.76,47.84.32,3.88.72,7.74,3.13,11,4.76,3.26,16.52-8,17.33,9.21,1.21,25.58-21.55,13.28-36.82,13.22-15.75-.07-39.21,12.42-35.03-16.2,1.46-10.01,8.6-6.33,16.04-5.66,2.03-.64,2.53-3.08,3.09-4.84,1.79-5.61,2.21-47.27,1.04-53.7-2.01-11.06-21.44,2.57-20.42-17.26.87-16.98,12.87-6.38,18.49-12.05,2.89-8.36,1.72-15.74,6.88-23.61,15.67-23.92,77.56-20.61,69.78,13.49-3.85,16.9-33.8,12.34-27.81-8.29Z"></path><path class="cls-1" d="M464.74,101.23c-17.83-1.65-23.67,17.62-24.99,32.07-.48,5.22-.93,23.7.29,27.8,2.72,9.14,20.06-5.44,20.15,14.39.1,23.51-24.74,11.62-38.46,11.61-12.51-.02-32.91,10.68-35.07-8.64-1.62-14.48,6.54-15.89,18.52-13.24,1.45-3.21,1.57-6.51,1.77-9.98.49-8.47,1.4-42.1-.39-48.22-1.98-6.77-8.18-1.95-12.9-2.63-9.12-1.32-8.74-18.7-3.22-23.52,5-4.37,14.64.16,20.35.15,6.45-.01,12.73-3.07,19.32-1.47l2.57,23.25c5.09-27.83,49.91-37.74,60.97-9.38,12.68,32.52-38.27,44.17-28.91,7.81Z"></path><path class="cls-1" d="M347.45,101.23c-24.73-2.61-28.4,36.64-26.58,53.94,1.62,15.33,5.77,8,14.5,8.89,8.06.82,7.34,19.14,3.45,23.15-6.12,6.32-26-.09-34.39-.11-9.42-.02-32.44,8.68-35.14-5.37-1.12-5.82-.68-17.08,7.08-18,5.42-.65,10.63,5.54,12.86-4.21,1.27-5.54,1.16-47.24-.36-52.11-2.26-7.23-6.56-2.71-12.44-3.12-7.82-.54-7.92-8.3-7.23-14.82,1.7-16.2,14.7-8.42,24.3-8.44,6.45-.02,12.73-3.07,19.32-1.47l3.33,23.22c4.92-37.96,68.91-33.11,60.65,6.69-4.58,22.04-40.3,17.3-29.36-8.24Z"></path><path class="cls-1" d="M1029.32,101.23c-12.07-1.03-18.19,5.85-21.94,16.36-3.1,8.69-6.84,37.29-2.75,45.08.57,1.09.77,2.26,2.23,2.58,10.72-2.93,18.26-.97,17.67,11.71-1,21.54-25.03,10.17-38.21,10.14-8.89-.02-24.73,6.09-31.31.16-4.46-4.02-5.29-13.49-3.05-18.76,4.41-10.41,16.34,3.18,19.16-8.99,1.25-5.4,1.14-47.43-.36-52.11-2.65-8.28-8.28-2.06-14.1-2.99-7.47-1.19-7.14-18.18-2.48-22.83,5.43-5.42,14.93-.61,21.21-.56,6.11.05,12.05-3.33,18.08-1.01,2.95,2.05.91,14.61,1.46,18.89.28,2.17.83,4.53,3.11,2.31,5.52-31.3,58.21-33.99,60.88-.57,2.52,31.42-40.97,29.81-29.59.58Z"></path></g></g></svg>