<svg xmlns="http://www.w3.org/2000/svg" id="Camada_2" data-name="Camada 2" viewBox="0 0 733.25 109.75"><defs><style>      .cls-1 {        fill: #fff;      }    </style></defs><g id="Camada_1-2" data-name="Camada 1"><g><polygon class="cls-1" points="112.21 0 112.16 4.44 89.84 22.95 66.98 22.95 66.98 89.17 42.36 109.75 37.99 109.75 37.99 39.54 57.31 23.65 57.73 22.95 0 22.95 0 18.83 22.24 0 112.21 0"></polygon><polygon class="cls-1" points="366.87 23.2 380.62 23.2 380.62 89.05 367.12 89.05 367.12 51.63 366.1 51.8 347.47 84.27 345.3 84.27 327.64 51.76 326.64 51.63 326.64 89.05 313.14 89.05 313.14 23.2 327.01 23.2 346.76 61.85 366.87 23.2"></polygon><path class="cls-1" d="M420.06,22.02c16.59-.93,30.61,8.95,33.92,25.36,4.74,23.48-9.8,44.34-34.76,42.92-40.81-2.31-41.45-65.92.83-68.28ZM419.81,34.5c-22.69,2.32-22.46,41.46.18,43.32,27.73,2.28,27.04-46.11-.18-43.32Z"></path><path class="cls-1" d="M654.03,23.2h13.25v65.85h-8.12l-32.74-37.67-1-.76-.63.38v38.04h-13.25V23.2h7.87l33.78,38.37c.27.19.83-.17.83-.34V23.2Z"></path><path class="cls-1" d="M505.33,23.2h13.25v65.85h-6.62l-34.86-38.29c-.27-.3-1,0-1,.25v38.04h-13.25V23.2h6.62l35.03,38.37c.27.19.83-.17.83-.34V23.2Z"></path><path class="cls-1" d="M193.93,23.2h29.38c11.66.83,20.23,7.08,20.87,19.32.66,12.58-8.14,18.98-19.37,21.1-.32.06-.45-.18-.38.36l18.49,25.07h-15.37l-18.25-24.94c-.53-.43-1.67-.44-2.12.12v24.82h-13.25V23.2ZM207.18,34.67v20.33c.22.36.5.34.86.39,2.33.27,6.82.13,9.27,0,8.82-.48,13.96-3.69,12.83-13.33-.51-4.36-5.16-7.39-9.34-7.39h-13.62Z"></path><path class="cls-1" d="M671.77,89.05l27.61-65.87,6.6.05,27.27,65.82h-14l-4.02-10.95-25.1-.04-4.36,10.99h-14ZM693.76,68.1h17.12l.27-.51-8.51-21.96-.76.26c-2.67,7.4-5.71,14.71-8.12,22.21Z"></path><path class="cls-1" d="M247.17,89.05l27.02-65.82,6.6-.05,27.86,65.87h-14.25l-4.36-10.99-25.1.05-4.03,10.95h-13.75ZM286.4,68.1l-8.04-22.03-.84-.44-8.62,22.47h17.49Z"></path><polygon class="cls-1" points="186.44 23.2 186.44 35.05 186.06 35.42 168.44 35.42 168.44 89.05 154.95 89.05 154.95 35.42 136.95 35.42 136.95 23.2 186.44 23.2"></polygon><polygon class="cls-1" points="576.8 23.2 576.8 35.42 558.81 35.42 558.81 89.05 545.56 89.05 545.56 35.42 527.57 35.42 527.57 23.2 576.8 23.2"></polygon><rect class="cls-1" x="585.3" y="23.2" width="13.5" height="65.85"></rect></g></g></svg>