<svg xmlns="http://www.w3.org/2000/svg" id="Camada_2" data-name="Camada 2" viewBox="0 0 602.56 315.66"><defs><style>      .cls-1 {        fill: #fff;      }    </style></defs><g id="Camada_1-2" data-name="Camada 1"><g><path class="cls-1" d="M602.56,148l-12.05,9.78-87.36,121.78c-3.94,4.3-8.95,7.94-14.67,9.55-8.53,2.41-36.8,2.2-45.6.13-5.34-1.25-11.84-5.13-13.44-10.69-.35-1.21-.43-5.9-.32-7.21.65-7.58,7.26-16.5,11.16-22.86,1.12-3.02-2.7-6.13-.65-8.67h43.18c.61,0,.93,1.26.52,2.02-.75,1.37-7.94,5.28-9.83,7.24-1.26,1.32-7.66,10.26-7.78,11.54-.27,3.05,2.22,5.1,5.05,5.3,6.81.49,13.08-7.05,16.79-11.93l23.61-32.99c.2-1.04-.4-.85-1.15-.64-4.13,1.16-6.66,2.22-11.13,2.43-12.19.59-26.08-.78-25.83-16.28.14-8.68,11.82-24.84,17.1-32.08,14.46-19.79,25.83-31.91,52.82-28.37,6.7.88,11.6,2.57,15.38,8.47v-7.78l1.73-.78c13.22.36,26.5-.39,39.72,0,.95.03,1.9-.05,2.74.52v1.51ZM595.78,149.01c-11.06.38-22.53,0-33.64,0-.11,0-.57-.75-.75-.5,1.02,2.22-1.21,13.32-4.78,10.04-1.39-1.28-1.97-4.99-5.01-7.03-5.89-3.95-23.26-3.34-29.98-1.36-6.49,1.92-13.18,6.45-17.72,11.39-6.43,7-26.68,34.5-27.82,42.94-2.23,16.64,17.59,17.62,29.19,14.62,2.01-.52,11.64-5.18,12.44-4.38l-.11,2.15-31.54,43.74c-2.05,2.29-7.6,6.81-10.51,7.56-7.9,2.03-15.69-2.14-11.47-10.96,2.62-5.48,7.68-10.14,12.33-13.74.41-.32.92,0,.63-1.15h-34.64c-.37,1.47.8,2.57.98,3.8.56,3.85-5.29,10.64-7.2,14.32-8.89,17.15-3.7,26.13,15.48,27.06,8.44.41,19.77.52,28.16,0,7.59-.47,13.66-2.64,19.33-7.78,29.11-38.5,55.51-79.12,84.61-117.64,3.63-4.81,7.26-9.76,12.77-12.59v-.74c-.08-.71-.62.24-.75.25Z"></path><path class="cls-1" d="M355.54,0c.65,3.9,3.34,4.26,5.88,5.9.49.31.9-.05.65,1.12-4.03.34-5.01,3.39-7.28,6.02-1.08-1.07-.05-2.44-1.23-3.78-.94-1.07-4.57-1.54-4.55-2.98,3.1-.98,5.1-2.99,5.53-6.28h1Z"></path><path class="cls-1" d="M390.18,0c1.25,3.41,3.2,4.19,5.88,5.9.5.32.89-.05.64,1.12-4.18.33-4.35,4.1-7.52,6.03.46-4.81-2.2-4.35-5.52-6.27,3.46-1.78,4.85-2.94,6.01-6.77h.5Z"></path><path class="cls-1" d="M321.39,0c.99,4.14,3.13,4.18,5.89,5.89.52.32.87-.02.64,1.13-3.88.03-5.07,3.86-7.53,6.02l-.74-4.03-4.8-1.74c2.05-3,5.37-2.47,5.53-7.27h1Z"></path><path class="cls-1" d="M59.81,90.81c.31,1.18-.29.84-.64,1.15-3.11,2.71-8.68,5.34-11.41,8.13-2.12,2.18-8.26,11.67-9.95,14.64s-3.76,6.74,1.04,8.3c7.46,2.42,12.31-4.41,16.92-8.91l57.43-81.09,1.3-2.69-2.47-7.03c.11-1.56,5.57-.25,6.73-.22,15.29.34,30.74-.12,45.96-.28l-14.04,11.05c-24.83,32.73-47.42,68.19-72.61,100.54-4.86,6.25-8.83,11.16-17.04,13.13-5.46,1.3-39.1,1.26-45.1.26s-13.43-5.24-15.16-11.32c-4.02-14.09,8.24-26.5,14.1-38.12l-2.28-7.55h47.2Z"></path><path class="cls-1" d="M258.63,71.24l-3.01,5.02c9.94-4.17,28.59-5.89,34.08,5.83,1.76,3.75,1.62,9.34-.53,12.9l-31.65,43.62c-2.04,5.34,3.93,5.46,2.12,9.89h-42.17l34.75-48.81c1.26-2.61,2.54-4.9-.35-6.87-4.12-2.81-11.1,4.3-13.8,7.29-10.15,11.24-17.95,26.71-27.86,38.39-.74,1.81-.04,3.89,1.21,5.28,1.78,1.98,2.71,1.01,2.54,4.74h-44.18l3.03-5.14,45.37-62.64c1.09-2.98,1.01-6.36.8-9.48h39.66Z"></path><path class="cls-1" d="M115.04,96.33c-.32-1.18.31-.85.64-1.15,2.72-2.42,6.8-5.29,9.17-7.87,1.34-1.47,1.85-3.43,3.04-4.99,10.97-14.46,44.65-16.06,60.46-10.83,7.68,2.54,12.6,8.98,10.8,17.32-.86,4.01-12.81,18.67-15.94,23.21-6.23,9.05-12.18,18.3-18.25,27.44-1.42,4.64,5.62,4.89,3.81,9.04h-44.18l3.51-5.51c-5.08,2.02-9.73,4.75-15.29,4.99-8.25.35-19.47-.51-20.81-10.81-3.03-23.14,25.88-35.46,44.9-37.33,6.18-.61,13.55.14,19.57-.51,3.17-.34,4.67-1.7,6.18-4.36s2.8-5.27-.37-6.96c-5.18-2.76-11.56,3.95-13.59,8.31h-33.64ZM147.17,114.89c-6.83,1.16-22.1,1-23.87,9.78-.25,1.23.93,3.81,2.13,4.17,5.77,1.74,15.95-5.57,19.44-9.98.42-.53,2.6-3.59,2.3-3.97Z"></path><path class="cls-1" d="M356.54,71.24l-14.56,12.29-57.74,79.77.74.24,20.86-12.79c1.07-.64-1.76-5.26.24-5.26h47.7c1.27,0,1.25,2.01.01,3.02-3.21,2.63-9.74,6.17-13.56,8.52-15.34,9.44-31.44,17.83-46.4,27.84l18.11,30.02c1.37,1.63,2.9,3.14,4.43,4.63.39.38,1.33.66,1.41.81.4.7-.08,2.42-.65,2.42h-40.42c-1.14-2.6,2.88-4.32,2.29-7.03l-10.12-16.01-23.59,14.01c-.88,2.77,5.32,6.54,5.33,7.77l-.77,1.25h-39.66c-.21,0-.87-.81-.76-1.23l101.47-140.96.97-9.32h44.69ZM291.27,148.5h-26.11l-51.21,71.74h31.13l-2.49-4.8c-.29-1.54.12-2.91,1.16-4.05,1.94-2.13,9.78-6.37,12.72-8.11,1.77-1.05,12.08-7.24,12.95-7.15.94.1,2.03,2.01,2.67,2.88,1.7,2.34,8.56,12.73,9.25,14.84s.66,4.45-.62,6.39h31.63c-1.21-1.7-2.58-3.3-3.72-5.06-5.31-8.2-11.81-18.73-16.36-27.3-.87-1.65-1.99-3.23-1.42-5.19l57.15-34.19h-39.16l.9,2.69-1.44,1.54-29.92,17.71-1.67-.38.39-1.85,14.17-19.71Z"></path><path class="cls-1" d="M346.34,261.04c1.99,1.84,1.74,5.11.99,7.46-.32,1.02-2.95,5.7-3.62,6.41-1.04,1.1-3.73,1.42-3.74,3.53,2.24.36,3.82-.56,5.67-1.6,7.91-4.48,6.82-9.99,10.81-16.79,3.55-6.05,6.13-7.35,11.89-2.18l.78-2.98c7.51-.44,2.74,7.12,2.1,10.87-.73,4.24.3,7.09.89,11.18,4.98.66,8.14-11.08,11.32-11.56,3.57-.54,3.95,6.59,4.75,9.04,3.6-.23,7.26-9.95,9.77-10.02,4.92-.14,2.74,10.4,6.14,11.43,5.08,1.55,8.09-5.41,11.46-7.93,2.21-.49,1.22,5.55.16,7.19-1.47,2.28-8.98,6.43-11.67,6.33-5.14-.2-5.95-10.93-7.32-10-1.27,3.12-8.02,11.11-11.31,11.08-.9,0-.59-.19-.88-.67-1.73-2.86-1.73-5.7-.87-8.9-2.5,2.87-7.01,10.76-11.57,9.31-2.78-.88-3.73-5.65-6-7.31-2.59,6.12-12.82,15.02-14.57,3.51-4.88,4.88-14.94,8.86-18.19.33-.2-.53.43-2.47-.92-1.01-1.76,1.89-2.68,3.05-5.34,4.07-5.13,1.99-12.41.53-13.94-5.4-7.9,6.96-19.08,17.25-27.58,4.98-4.93-7.12-4.25-16.5-2.68-24.68.78-4.08,5.18-16.19,10.15-16.35,3.8-.13,4.05,4.31,6.99,1.97,2.97,2.49,1.46,7.17,1.87,10.7s3.65,6.69-.04,9.55h-1.53c-4.69-5.01.21-14.07-5.83-18.23-6.45,3.74-8.28,12.87-8.71,19.78-.43,6.85-.08,17.02,8.13,18.98,5.02,1.2,12.99-6.16,15.97-9.95,3.61-4.59,2.25-7.67,3.06-12.99.93-6.07,3.36-20.35,6.76-24.85,1.35-1.79,6.48-5.69,7.66-2.21.36,1.05.22,7.93.04,9.41-.37,3.13-2.43,8.36-3.6,11.45-2.09,5.55-7.46,13.57-6.85,19.14,1.19,10.81,11.17,3.72,14.71-1.75,2.16-3.34,2.47-6.9,6.07-9.49,2.27-1.63,6.33-2.97,8.63-.85ZM324.91,237.31c-.89-.18-1.23.46-1.76,1-3.18,3.25-4.2,13.86-4.76,18.57.78-.13.94-.94,1.24-1.51,1.25-2.42,6.89-16.21,5.28-18.05ZM356.04,278.94c.78.15,1.16-.08,1.78-.48,1.44-.92,7.03-8.87,7.53-10.53,1.12-3.72.75-12.31-4.28-6.28-3.8,4.55-5.37,11.49-5.03,17.29ZM344.48,263.39c-4.57.14-9.03,5.34-7.56,9.82,2.08,1.49,6.51-4.68,7.16-6.46.2-.55.55-3.13.4-3.36Z"></path><path class="cls-1" d="M156.71,274.43c4.18-.09,7.12-9.99,10.29-9.99,5.29,0,1.22,13.86,9.44,11.39.53-.16,4.85-4.45,5.37-5.17,3.66-5.01,7.01-14.48,15.29-13.8,5.61.46,2.03,6.69,2.3,9.73.08.86,2.64,9.01,3,9.34,1.16.31.84-.28,1.14-.63.89-1.03,5.98-8.77,7.38-7.39,2.54,6.26-6.48,10.27-7.41,13.92-.68,2.66.1,7.42-.1,10.43-.22,3.31-2.2,16.46-5.04,18.03s-5.14-1.22-5.79-3.74c-2.98-11.72,10.47-24.35,3.52-35.13-3.28,2.56-5.41,7.66-9.77,8.79s-4.23-1.72-5.78-1.76c-3.17-.07-7.61,6.46-11.54.47l-3.28-7.5c-1.28,2.52-8.64,11.28-11.28,11.06-3-.25-2.22-6.93-2.29-9.06-5.93,5.88-10.37,14.27-17.32,3.52-6.64,6.46-14.55,3.58-18.57-4.02-2.56,1.36-2.52,14.12-7.07,9.54-1.31-1.31-.58-10.35-.48-12.58-1.05-2.04-4.77-2.64-4.79-4.74-.04-3.92,7.8,1.12,5.12-5.97l2.03-19.79,1.45-.34c.68.57,1.31,1.09,1.49,2.02,1.3,6.7-1.74,15.83-.24,22.81,12.36-7.31,10.32-23.57,17.07-34.61,2.45,1.05.6,10.24.13,12.67-1.72,8.95-6.43,18.86-13.2,24.95,3.11,5.79,9.66,13.58,15.25,5.19,2.27-3.41,1.39-7.31,2.69-10.85.49-1.34,2.26-1.05,2.96-.15,1.75,2.26-2.07,12.65,1.95,15.62,1.26.73,5.71-4.01,6.53-5.05,1.22-1.54,3.11-6.04,4.81-6.28,3.71-.53,4.45,6.38,4.74,9.05ZM194.36,261.89c-5.3,1.88-8.95,7.49-8.53,13.04,1.34,1.32,5.13-3.44,5.84-4.45,1.86-2.66,3.19-5.21,2.69-8.59ZM196.87,303.53c1.8-4.65,3.08-8.95,2.51-14.05-2.41,1.93-2.07,6.87-2.53,9.76-.17,1.05-2.37,4.49.02,4.29Z"></path><path class="cls-1" d="M453.69,145.49c2.4.73-1.16,4.15-.75,4.51,10.3-2.58,25.46-5.44,32.63,4.77,7.41,10.57-4.46,20.75-10.25,28.88-6.9,9.68-13.74,19.41-20.61,29.12-.55,1.87.36,3.58,1.48,4.98,1.57,1.94,3.99,2.2,3.27,5.01h-42.93c-.79,0-1.06-2.18-.29-2.8,7.34-10.5,15.31-20.78,22.62-31.19,2.2-3.14,11.2-15.27,11.56-17.98.81-6.28-7.47-4.23-10.27-1.2-12.93,12.42-21.48,28.71-32.52,42.77-.93,2.04.8,5.55,2.38,6.9.63.54,2.22.91,2.3,1.29.14.61-.21,2.21-.79,2.21h-43.18c-2.16,0,.99-4.13,1.35-4.67,14.49-21.95,32.13-42.57,46.12-64.79.19-1.35-.7-7.8,1.23-7.8h36.65ZM449.93,148.5h-31.13l-.77,7.51-45.92,64.24h34.64c-.89-2.2-2.91-5.75-2.41-8.16.19-.93,9.11-13.07,10.53-15.08,5.46-7.73,18.5-27.86,26.18-31.53,2.98-1.43,6.26-2.11,9.38-.66,5.11,2.37,2.3,8.71.21,12.25-7.89,13.38-20.08,26.71-28.74,40.02-.63.96-1.59,1.97-1.6,3.17h33.64c-1.05-2.26-3.26-6.04-2.24-8.51l32.29-44.5c3.43-6.34-1.52-14.18-7.95-15.98-7.88-2.21-18.88.06-26.23,3.39-1.04.47-1.55,1.84-3.08,1.34-2.92-.95,2.77-5.93,3.2-7.49Z"></path><path class="cls-1" d="M47.26,273.43c2.92-2.06,11.19-13.52,14.31-13.55,5.22-.05-.76,14.41,1.25,17.06.86.6,3.66-2.35,4.27-3,4.53-4.8,5.32-14.04,13.58-14.08,2.85-.01,4.92,3.04,4.77,5.81-.09,1.78-2.7,7.38-3.82,8.74-1.25,1.51-4.05,1.73-4.25,4.03,3.92.14,8.52-3.1,11-5.92,1.73-1.96,1.93-4.63,5.09-4.4,3.11,5.4-5.66,12.24-9.95,14.21-5.46,2.5-11.72,1.88-12.68-4.88-1.86,2.58-10.71,7.31-12.33,2.75-.8-2.26.59-9.03-.97-11.78-1.49,1.96-3.47,3.64-4.98,5.56-3.08,3.92-5.48,11.59-10.84,11-.92-6.14,1.28-11.64,2.38-17.45,1.75-9.32,2.96-18.77,6.16-27.7-5.92,2.13-11.71,4.77-17.41,7.43-8.75,4.1-18.61,8.4-25.52,15.13-3.79-4,1.65-7.21,4.81-9.23,11.88-7.59,27.03-11.89,39.8-17.92,2.47-1.56,2.68-5.23,6.33-6.21,4.92-1.32,3.72,1.98,4.82,2.22,2.37-.36,10.19-3.31,11.18-.1,1.22,2.71-4.28,5.38-6.19,5.18-1.22-.13-2.89-2.96-5.06-1.03.6,5.68-1.27,14.9-4.31,19.75-1.99,3.18-3.6,5.71-5.54,9.01s-5.55,5.51-5.92,9.38ZM60.81,235.8c-.18-.2-4.42,1.32-4.99,1.78-3.49,2.83-6.39,19.05-6.05,23.8,6.03-7.17,10.56-16.04,11.04-25.58ZM74.37,273.43c1.71,1.65,7.91-6.36,7.82-8.5-1.46-4.05-7.24,2.24-7.72,4.33-.3,1.34-.03,2.8-.1,4.16Z"></path><path class="cls-1" d="M404.55,151.82c-2.49,2.11-5.41,3.72-7.55,6.26l-39.86,55.51c-.07,3.72,3.56,4.86,5.19,7.67l-.49,1.02h-43.24s.25-2.32.25-2.32l46.27-63.63,1.93-10.61,40.95-.22c3.98.74-2.15,5.22-3.45,6.33ZM403.23,148.5h-34.14l-1.29,9-45.41,62.75h34.64c-1.84-2.84-3.4-5.44-2.24-9.01,13.55-16.91,24.8-35.67,38.17-52.66,3.2-4.07,6.79-6.39,10.26-10.07Z"></path><path class="cls-1" d="M260,276.29c1.46-1.17,3.36-4.6,4.67-6.11.74-.85,1.49-1.9,2.74-1.81l1.2.87c.58,5.93-6.32,12.97-12.21,12.73-1.86-.08-3.15-1-4.79-1.52l-1.13,19.19c-1.57,2.92-4.28,14.37-6.91,15.69-3.83,1.93-3.19-5.39-3.01-7.53,1.01-11.97,6.82-24.03,5.51-36.38-1.41-.23-1.15,1.23-2.24,2.02-1.39,1-4.91,1.61-4.7-.67.29-3.04,8.5-10.39,9.98-14.62,2.18-6.23-.18-11.74,3.63-18.94,5.58-10.53,7.64.16,6.14,6.63-1.95,8.4-6.86,14.45-7.72,23.89-.22,2.42-.4,4.58,1.68,6.22,1.87,1.48,5.23,1.88,7.15.35Z"></path><path class="cls-1" d="M316.12,67.73c-.24-.07-.6-.55-.69-.83-.35-1.08,2.27-8.22,2.72-10.19,2.61-11.51,2.43-24.05,1.72-35.81.53-2.3,6.48,2.65,7.79,3.2,9.41,3.93,17.68.94,26.12-3.58,1.39,0,2.89,1.95,4.31,2.77,9.39,5.4,17.36,5.13,27.58,2.55,1.36-.34,6.4-3.02,7.02-1,.22.7-.14,1.38-.82,1.68-13.79,12.66-25.5,27.39-38.09,41.21h-37.66ZM318.88,65.22h33.39c10.47-12.24,21.12-24.34,32.38-35.87-6.67.93-12.57,1.8-19.28.21-4.41-1.05-7.97-3.72-12.05-5.48-9.44,5.1-21.13,6.96-30.42.51.29,13.72.15,27.47-4.02,40.64Z"></path><path class="cls-1" d="M233.34,279.27c-1.84,2.4-3.34,3.55-6.53,3.57-3.18-.58-2.46-10.57-2.02-12.98.61-3.33,3.52-9.14,5.51-11.95.37-.52,3.19-3.91,3.45-4.08,2.95-1.95,2.86.78,3.81,1.78,2.12,2.22,3.69.41,3.02,6.05-.48,3.99-4.77,14.4-7.23,17.61ZM236.54,259.88c-1.01-.13-1.7.84-2.22,1.54-.56.74-4.07,7.23-4.41,8.13-.79,2.07-.49,4.71-.89,6.88,1.29.31.88-.41,1.3-.94,3.77-4.63,6.11-9.49,6.22-15.61Z"></path><path class="cls-1" d="M390.56,119.03c6.8-.8,17.83-.16,22.99,4.87,3.55,3.46,3.56,7.7.18,11.26-5.43,5.7-18.3,6.15-25.57,4.59-17.5-3.75-14.36-18.73,2.41-20.71ZM412.62,127.07c-.23-.28-3.04-2.48-3.51-2.76-6.63-3.87-19.9-3.89-26.41.41-10.31,6.83,3.94,12.48,10.29,13.18,5.05.56,15.02-1.09,18.73-4.76,1.53-1.51,2.38-4.24.9-6.08Z"></path><path class="cls-1" d="M32.09,281.34c-3.57,1.95-3.77-1.9-3.42-4.67.84-6.77,3.12-13.33,3.56-20.53.2-3.23-1.23-3.9.87-7.14,1.28-1.96,2.78-.57,3.1,1.11.37,1.93.18,7.83,0,10.01-.55,6.69-3.44,14.38-4.11,21.22Z"></path><path class="cls-1" d="M476.34,235.13c-.55,1.03-4,2.97-5.19,3.07-4.44.39-7.88-4.09-6.82-8.32,2.45-9.84,16.99-4.13,12.01,5.25ZM468,234.8v-7.02c1.46.15,4.08-.53,5.07.7,1.4,2.71-1.99,3.81,1.21,6.31,4.54-4.85-2.38-11.34-7.11-6.85-4.17,3.97,1.27,10.32,6.36,7.85l-3.27-3.5-.75,2.51h-1.5Z"></path><path class="cls-1" d="M420.67,242.44c6.14-1.25,10.38,2.66,8.45,8.94-1.21,3.94-8.04,4.73-10.77,2.18-3.15-2.94-2.27-10.18,2.32-11.12ZM420.3,244.83c1.79.02,3.86-.38,5.28.99.87,2.63-2.18,3.78,1,6.02,2.3-2.32,1.52-6.17-1.4-7.62-5.17-2.58-9.53,4.22-5.75,8,1.36,1.36,5.13,2.3,6.39.14-2.19.25-2.24-2.29-4.01-3.02v3.01s-1.51,0-1.51,0v-7.53Z"></path><path class="cls-1" d="M143.19,244.37l3.51-.79c1.22.95,1.74,2.61,1.01,4.03-2.62,1.63-5.23-.01-4.52-3.23Z"></path><path class="cls-1" d="M527.93,199.87c-2.43,1.93-4.75,3.7-8.1,4.19-11.27,1.65-13.2-6.32-9.76-15.27,2.61-6.77,13.22-20.18,19.66-23.5,3.71-1.92,8.47-2.54,12.59-1.5,3.2.81,5.53,3.7,5.55,7.04.01,3.83-3.73,8.57-5.85,11.75-3.81,5.71-8.77,13.07-14.08,17.29ZM544.68,168.72c-1.75-2.36-5.38-2.89-8.14-2.65-8.47.73-20.12,15.45-23.28,22.89-3.18,7.49-2.88,14.02,7.09,12.1,4.48-.86,9.66-6.79,12.4-10.31,2.48-3.19,11.85-16.3,12.34-19.42.1-.62-.07-2.14-.41-2.61Z"></path></g></g></svg>