<svg xmlns="http://www.w3.org/2000/svg" id="Camada_2" data-name="Camada 2" viewBox="0 0 657.59 87.83"><defs><style>      .cls-1 {        fill: #fff;      }    </style></defs><g id="Camada_1-2" data-name="Camada 1"><g><path class="cls-1" d="M253.89,5.95v34.39c3.09-1.38,6.38-4.24,8.62-6.72,1.59-1.76,6.07-9.24,6.94-9.71,3.92-2.13,11.54.08,15.9-.01-3.67,8.75-10.72,15.28-16.37,22.67l18.63,21.8c.03,1.62-15.62,1.05-17.46,1.14l-12.52-14.63-3.74.41v13.08l-1.12,1.12h-11.99l-1.12-1.12V5.95c4.83-1.23,9.4-.81,14.24,0Z"></path><path class="cls-1" d="M23.87,7.45v60.92c0,7.81-9.12,16.83-16.44,18.73-1.27.33-7.25,1.47-7.43-.02L.98,23.86C3.69,13.66,13.15,6.61,23.87,7.45Z"></path><path class="cls-1" d="M137.76,7.45v12.71h-24.35c-.25,0-1.14.99-1.87.75v13.46h23.23v12.71h-23.23v21.3l-1.12,1.12h-13.11V14.55c0-1.77,5.34-7.1,7.12-7.1h33.34Z"></path><path class="cls-1" d="M198.45,23.89v29.53c0,4.95,12.54,6.49,15.73,2.99V23.89c4.67-.92,9.63-1.32,14.24,0v41.86c-2.21.43-4.02,1.76-6.16,2.45-10.02,3.24-29.11,4.9-35.68-5.19-.43-.66-2.37-4.78-2.37-5.11V23.89c4.61-1.32,9.57-.92,14.24,0Z"></path><path class="cls-1" d="M335.56,8.2c11.2-1.9,34.77-4.95,39.35,8.96,2.55,7.73-.3,14.51-6.38,19.44,5.46,1.41,9.22,6,9.78,11.56,2.1,20.85-17.12,23.13-33.37,22.08-2.7-.17-7.4-.58-9.37-1.86V8.2ZM343.05,33.61h16.86c.3,0,3.53-1.53,4.09-1.9,5.11-3.45,5.93-11.19,1.2-15.33-.94-.82-5.21-2.95-6.03-2.95h-16.11v20.18ZM357.66,40.34c-4.26-.45-9.14.33-13.49,0l-1.12,1.12v21.3c11.2,1.48,31.01,2.47,27.55-14.41-1.07-5.19-8.29-7.53-12.94-8.02Z"></path><path class="cls-1" d="M450.2,5.21v20.18c16.03-8.52,35.04,1.05,35.27,19.8.3,24.2-23.85,30.01-42.77,21.31V5.21h7.49ZM450.2,61.27c11.49,3.98,25.7,2.29,27-12.3,1.15-12.96-6.08-20.33-19.13-19.08-1.61.15-7.87,1.64-7.87,3.35v28.03Z"></path><path class="cls-1" d="M557.34,66.5c-14.17,5.85-34.8,6.77-41.04-10.26-8.04-21.95,12.3-40.75,33.55-31.6V6.33c1.61-1.76,5.88-1.76,7.49,0v60.18ZM549.85,60.9v-28.41c-8.18-5.45-22.66-3.33-26.05,6.9-6.09,18.36,9.86,29.67,26.05,21.51Z"></path><path class="cls-1" d="M431.47,48.56h-33.72c.85,13.42,11.31,17.31,23.22,13.08,3.5-1.25,5.7-5.2,8.44.6,1.38,2.92-5.55,5.7-8.03,6.54-21.75,7.34-37.69-10.94-30.4-31.83,4.96-14.21,23.52-19.77,34.86-9.31,1.63,1.5,5.62,8.17,5.62,10.09v10.84ZM423.97,41.83c-1.36-17.34-24.4-16.57-26.22,0h26.22Z"></path><path class="cls-1" d="M604.51,65.04h-1.05c-11.78,10.65-32.62,4.95-34.81-11.68-3.38-25.72,19.35-39.41,40.77-25.72,2.06,7.78-1.95,26.56,1.56,32.83,1.69,3.03,6.31,2.07,2.9,7.49-2.51,3.99-7.82.31-9.37-2.92ZM600.54,59.52c.99-1.02,1.61-2.39,1.79-3.82.31-2.49.22-22.58-.39-23.59-16.73-10.1-32.11,8.61-23.77,24.46,4.13,7.84,16.32,9.22,22.37,2.95Z"></path><path class="cls-1" d="M146,28.75c8.46-6.74,19.9-8.67,30.28-5.69,1.99,1.38-1.68,10-2.68,11.92l-13.37.87v32.52l-1.12,1.12h-13.11V28.75Z"></path><path class="cls-1" d="M635.84,22.59c6.28-.86,15.65-.16,20.18,4.64l-3.12,5.53c-4.68-3.94-22.11-6.29-23.5,1.39-1.45,8.02,13.49,7.62,18.6,9.55,16,6.05,10.38,24.55-4.94,26.44-7.03.87-16.9-.16-21.92-5.62l4.01-5.37c4.84,6.07,27.2,6.81,24.61-3.74-2.19-8.88-22.44-2.84-27.06-14.87-3.64-9.48,4.23-16.75,13.15-17.96Z"></path><path class="cls-1" d="M38.1,30.62V7.45h22.85c4.55,0,8.68,7.38,8.68,11.59s-4.13,11.59-8.68,11.59h-22.85Z"></path><path class="cls-1" d="M38.1,68.74v-23.17h22.85c1.09,0,5.04,2.73,5.95,3.78,3.91,4.52,3.56,11.58-.44,15.92-.71.77-5.02,3.47-5.51,3.47h-22.85Z"></path><path class="cls-1" d="M308.59,23.15v46.35h-13.11l-1.12-1.12V23.15c5.01-.67,9.23-.67,14.24,0Z"></path><path class="cls-1" d="M495.9,24.27l1.24-1c.95-.21,1.92-.17,2.88-.17,1.54,0,3.17-.25,4.12,1.17v44.1l-1.24,1c-.95.21-1.92.17-2.88.17-1.54,0-3.17.25-4.12-1.17V24.27Z"></path><path class="cls-1" d="M300.17.12c12.89-1.86,13.59,19.03-.15,17-9.92-1.46-8.84-15.71.15-17Z"></path><path class="cls-1" d="M503.94,6.16c5.3,5.27-2.96,13.33-8.05,7.66-5.08-5.67,3.47-12.2,8.05-7.66Z"></path></g></g></svg>