<svg xmlns="http://www.w3.org/2000/svg" id="Camada_2" data-name="Camada 2" viewBox="0 0 540.17 257.21"><defs><style>      .cls-1 {        fill: #fff;      }    </style></defs><g id="Camada_1-2" data-name="Camada 1"><g><path class="cls-1" d="M485.36,70.28c37.96,32.41,68.63,78,48.38,129.95-17.5,44.9-84.86,49.08-126.38,52.42-79.52,6.4-164.1,5.41-243.73,1.02-65.47-3.61-169.67-.7-163.35-93.44C4.7,95.36,74,45.31,129.92,24.17,239.35-17.21,394-7.72,485.36,70.28ZM68.24,99.33c1.98,14.6-1.48,33.39,0,48.45-5.96,1.48-12.25,1.19-18.2-.28-3.93-.97-12.06-6.44-14.72-5.25-2.33,1.05-8.24,9.59-8.8,12.25-5.08,24.32,28.4,18.32,41.72,12.26-1.5,22.01,9.45,37.28,29.93,20.37-6.22-8.88-9.15-20.65-8.46-31.37,1.2-1.95,21.66-8.84,22.48-7.97.43,10.11-.54,20.4-.04,30.5.19,3.69.59,9.39,1.03,12.95,2.28,18.1,22.16,18.12,36.27,15.46l.71-2.48c-17.98-12.82-19.11-41.12-20.01-61.43,6.45-.25,11.72-2.27,17.85,1.14,2.98,18.96-14.8,58.3,21.09,40.32-4.99-7.45-4.65-19.2-4.02-28.02.54-7.55,6.63-23.49,2.06-28.94-6.16-7.34-28.42-3.72-36.97-1.49.16-8.82-.23-17.68-.05-26.51.1-4.7,2.81-11.34-.06-15.84-3.79-5.94-19.98-1.5-25.87-.6l6.89,48.29-21.4,11.62c-2.02.28-1.29-.08-1.47-1.46-.7-5.34-.31-15.35-.05-21.04.32-7.12,3.96-25.88,1.52-31.39-3.07-6.95-23.87.02-24.22,2.44.49,2.34,2.48,5.93,2.77,8.03ZM330.29,118.15c1.44-1.32,7.1-4.87,8.93-5.56,7.51-2.82,12.81,1.18,12.78-10.27-.03-11.32-10.09-12.27-18.75-8.68s-14.39,17.23-15.3,26.16c-2.01-1.11-.93-4.79-2.54-6.94-4-5.34-18.31.36-22.18,4.4,2.16,5.26,3.4,11.28,3.79,16.98.83,11.86-2.59,27.44-.98,37.93,1.78,11.57,16.22,10.59,24.91,8.54-7.36-16.45-4.25-50.07,9.33-62.57ZM155.91,97.03c-11.19,1.63-10.92,21.64,3.71,18.75,8.38-1.65,8.27-20.5-3.71-18.75ZM460.3,177.74c3.32.71,11,0,14.98,0,.15,0,2.54-1.13,2.52-1.52-5.81-9.03-6.65-20.36-6.01-30.93.12-1.97,1.38-11.86,1.95-12.8,1.22-2.01,6.99-1.06,8.6.23,5.25,4.19.74,30.69,1.44,38.51,1.72,19.36,16.19,22.88,29.95,11-29.77-5.25,10.18-72.16-29.02-63.98-4.46.93-6.99,4.09-10.92,5.55,2.52-21.79-29.67-26.56-33.96-5.99,1.3,1.17,11.37-3.23,13.74,5.74,3.32,12.54-1.8,31.98.3,45.64.44,2.88,3.5,7.93,6.43,8.55ZM193.78,114.13c-6.24-7.44-15.38-3.35-22.65-.3.29,3.22,3.97,3.58,5.84,6.63,1.17,1.9,1.9,4.61,2.15,6.84,1.35,12.03-.21,31.37-1.01,43.94-.42,6.63-5.53,31.53-1.51,35.5,3.51,3.47,18.2-.39,22.08-4-2.86-7.9-3.65-16.56-3.57-24.99,28.7,14.86,40.84-33.86,30.16-52.65-5.03-8.84-15.75-9.63-23.92-4.6-1.7,1.05-2.54,3.54-4.24,4.3-.06-3.09-1.36-8.32-3.33-10.67ZM254.04,156.77c37.44,11.74,46.81-44.44,6.57-38.87-8.09,1.12-17.36,9.87-21.08,16.88-14.48,27.32,5.88,58.33,36.48,45.47,11.31-4.75,13.12-17.03-.82-17.31-6.66,15.22-22.35,9.81-21.15-6.16ZM353.92,176.74c28.69,16.77,44-42.9,25.99-56.46-8.74-6.58-20.74,0-24,9.5-2.22-1.38-.22-5.41-1.48-7.99-2.9-5.92-18.21,1.8-20.01,7.06-.62,1.83,2.19,6.39,2.52,9.42,2.11,18.93-2.24,38.21-2.99,56.95-.37,9.18-1.22,13.57,9.49,12.48,2.75-.28,13.52-3.43,13.32-6.3-.54-2.19-2.85-7.37-2.85-9.19v-15.48ZM449.8,185.71c-.04-4.16-3.95-5.61-5.48-9.98-5.45-15.63-.08-32.01-1.99-47.95-2.23-3.78-9.32-.66-10.51-1.41-1.65-1.04-2.56-6.98-7.72-8.32-18.61-4.81-29.7,21.83-31.1,36.33-1.77,18.36,6.68,37.96,26.49,23l7.34-10.63c1,17.34,3.38,27.42,22.97,18.95Z"></path><path class="cls-1" d="M208.07,131.8c2.72,12.58.22,31.36-11.97,37.95-.4-8.33.34-16.74,2.71-24.75,1.43-4.86,3.65-11.8,9.26-13.2Z"></path><path class="cls-1" d="M353.93,167.75c.35-11.54.54-28.15,11.47-34.96,6.09,1.46-.05,36.5-11.47,34.96Z"></path><path class="cls-1" d="M421.86,132.79c1.42-.99,2.76,5.69,2.87,6.6,1.2,10-1.17,22.82-10.38,28.33-3.21-.13-.63-15.51-.03-17.99,1.52-6.32,4.96-11.12,7.54-16.94Z"></path><path class="cls-1" d="M267.92,131.89c3.71,8.18-4.57,17.07-12.88,16.88.51-6.86,4.51-17.77,12.88-16.88Z"></path></g></g></svg>