<svg xmlns="http://www.w3.org/2000/svg" viewBox="0 0 1600 1200" role="img" aria-label="Espaço reservado para a imagem do hero">
  <defs>
    <linearGradient id="bg" x1="0" y1="0" x2="1" y2="1">
      <stop offset="0" stop-color="#0e4a7a"/>
      <stop offset="1" stop-color="#08324f"/>
    </linearGradient>
  </defs>
  <rect width="1600" height="1200" fill="url(#bg)"/>
  <rect x="26" y="26" width="1548" height="1148" rx="28" fill="none" stroke="#5aa9df" stroke-width="4" stroke-dasharray="26 22" opacity="0.8"/>
  <g fill="#bcdcf3" opacity="0.92" transform="translate(800 470)">
    <path d="M-96 -70 h192 a20 20 0 0 1 20 20 v120 a20 20 0 0 1 -20 20 h-192 a20 20 0 0 1 -20 -20 v-120 a20 20 0 0 1 20 -20 z" fill="none" stroke="#bcdcf3" stroke-width="9"/>
    <circle cx="-44" cy="-18" r="26"/>
    <path d="M-84 74 l58 -66 l40 40 l52 -60 l70 86 z"/>
  </g>
  <text x="800" y="700" font-family="Poppins, Arial, sans-serif" font-size="70" font-weight="700" fill="#eaf4fd" text-anchor="middle" letter-spacing="1">SUA IMAGEM AQUI</text>
  <text x="800" y="784" font-family="Roboto, Arial, sans-serif" font-size="44" fill="#9fc8e8" text-anchor="middle">Proporção 4:3 · 1600 × 1200 px</text>
</svg>
